//Gmsh geometry file for -3, 2 torus knot

chl=0.1;
//List of Points:
Point ( 0 ) = { 3.279546921653912 , -0.10887386552254595 , 0.0 , chl } ;
Point ( 1 ) = { 2.4472640572471547 , -2.0287122055050038 , -0.4198891015602646 , chl } ;
Point ( 2 ) = { 0.6254468342749421 , -2.8392351711328723 , -0.7621620551276365 , chl } ;
Point ( 3 ) = { -1.0925568863840385 , -2.267292479150985 , -0.963549992519223 , chl } ;
Point ( 4 ) = { -1.8725424010862137 , -0.9086844853640559 , -0.9868265225415261 , chl } ;
Point ( 5 ) = { -1.6476347676790382 , 0.3624440141534288 , -0.8276889981568906 , chl } ;
Point ( 6 ) = { -0.9186070086772604 , 1.072729001570413 , -0.5155538571770216 , chl } ;
Point ( 7 ) = { -0.13410412937529895 , 1.2912424494094086 , -0.10811901842394193 , chl } ;
Point ( 8 ) = { 0.6463684071941712 , 1.1875518729176817 , 0.31930153013598 , chl } ;
Point ( 9 ) = { 1.4254479181869955 , 0.6673614057298283 , 0.6876994588534234 , chl } ;
Point ( 10 ) = { 1.8850213408688765 , -0.4135843030033089 , 0.9289767198167914 , chl } ;
Point ( 11 ) = { 1.5100859675582243 , -1.8053880456423288 , 0.9985334138511238 , chl } ;
Point ( 12 ) = { 0.10722550644367099 , -2.763623439266581 , 0.8835120444460228 , chl } ;
Point ( 13 ) = { -1.790158692764193 , -2.517142393007092 , 0.6051742151937648 , chl } ;
Point ( 14 ) = { -3.120803909026579 , -0.9504394980724421 , 0.2149704402110244 , chl } ;
Point ( 15 ) = { -3.041831339767315 , 1.153286422772199 , -0.2149704402110239 , chl } ;
Point ( 16 ) = { -1.595542694502303 , 2.613130600503023 , -0.6051742151937651 , chl } ;
Point ( 17 ) = { 0.31390155002583126 , 2.7045896206281177 , -0.8835120444460229 , chl } ;
Point ( 18 ) = { 1.6230861168611899 , 1.628798916858679 , -0.9985334138511239 , chl } ;
Point ( 19 ) = { 1.8609493225690394 , 0.21795132078002766 , -0.9289767198167915 , chl } ;
Point ( 20 ) = { 1.3096954461130943 , -0.7927313830032339 , -0.6876994588534234 , chl } ;
Point ( 21 ) = { 0.5215543773345429 , -1.2283922057061012 , -0.31930153013598006 , chl } ;
Point ( 22 ) = { -0.25142084149886285 , -1.2792016421265686 , 0.10811901842394189 , chl } ;
Point ( 23 ) = { -1.0471727528377355 , -0.9930196733064621 , 0.5155538571770221 , chl } ;
Point ( 24 ) = { -1.7278306650399027 , -0.19457893883409885 , 0.8276889981568908 , chl } ;
Point ( 25 ) = { -1.828348417594072 , 1.1085118231419604 , 0.9868265225415263 , chl } ;
Point ( 26 ) = { -0.9221027763419705 , 2.3948271742543454 , 0.9635499925192228 , chl } ;
Point ( 27 ) = { 0.840814281843659 , 2.8200115676859725 , 0.762162055127637 , chl } ;
Point ( 28 ) = { 2.5942475512701373 , 1.8684635382386 , 0.41988910156026515 , chl } ;
Point ( 29 ) = { 3.0639093718603068 , -0.09135214661136078 , 0.27851459117596944 , chl } ;
Point ( 30 ) = { 2.307614321893648 , -1.8664217333270643 , -0.13964510953105758 , chl } ;
Point ( 31 ) = { 0.6486275669542971 , -2.6302189746890097 , -0.4790510799445856 , chl } ;
Point ( 32 ) = { -0.9201529267949331 , -2.152090687729112 , -0.6782740506949976 , chl } ;
Point ( 33 ) = { -1.6722614446266348 , -0.9756950360358072 , -0.7043834918418568 , chl } ;
Point ( 34 ) = { -1.5639088921014372 , 0.14976856522343573 , -0.5591074049795108 , chl } ;
Point ( 35 ) = { -0.9946684425484602 , 0.8321961052423539 , -0.2691080719138086 , chl } ;
Point ( 36 ) = { -0.3084884274798372 , 1.0997134952326526 , 0.13122115225172026 , chl } ;
Point ( 37 ) = { 0.4347464103837116 , 1.0722756990408175 , 0.5767980839280148 , chl} ;
Point ( 38 ) = { 1.2095237440243802 , 0.6366770264283437 , 0.9648495281147975 , chl } ;
Point ( 39 ) = { 1.6857389338571023 , -0.35432415918486015 , 1.2138480918827117 , chl } ;
Point ( 40 ) = { 1.3680482745378466 , -1.6528279930336345 , 1.2830112954552841 , chl } ;
Point ( 41 ) = { 0.07979989891747502 , -2.553096585795998 , 1.1651203203047134 , chl } ;
Point ( 42 ) = { -1.6772232831917546 , -2.3336215082615803 , 0.8843562689498035 , chl} ;
Point ( 43 ) = { -2.913509007339063 , -0.887496420759384 , 0.4932579422035408 , chl } ;
Point ( 44 ) = { -2.8493143525021214 , 1.0564797520960343 , 0.06421161354501415 , chl } ;
Point ( 45 ) = { -1.5316173849819132 , 2.4106774583117305 , -0.32356593933507494 , chl } ;
Point ( 46 ) = { 0.20681967747021257 , 2.525752408447596 , -0.5990341628418626 , chl } ;
Point ( 47 ) = { 1.417086592694084 , 1.6007019698231804 , -0.713662041785204 , chl } ;
Point ( 48 ) = { 1.7048582766653402 , 0.3702679827366703 , -0.6518266505554173 ,chl } ;
Point ( 49 ) = { 1.3092682049815476 , -0.5517494681989262 , -0.4302029050613887 , chl } ;
Point ( 50 ) = { 0.6563781844902357 , -1.0072231193999472 , -0.07996135946031785 , chl } ;
Point ( 51 ) = { -0.05279218987013043 , -1.1236764843846152 , 0.3545648036871548 , chl } ;
Point ( 52 ) = { -0.8306579220169502 , -0.9197926506068004 , 0.784135450354402 , chl } ;
Point ( 53 ) = { -1.5170429107066794 , -0.2076708464434468 , 1.1101320288565604 , chl } ;
Point ( 54 ) = { -1.6507582494782613 , 1.0014776686985836 , 1.2721024643657515 , chl } ;
Point ( 55 ) = { -0.8308511678724286 , 2.2053588109449724 , 1.2466609677022744 , chl } ;
Point ( 56 ) = { 0.7972658658764098 , 2.610383846688041 , 1.0424060471568444 , chl } ;
Point ( 57 ) = { 2.42356075678844 , 1.735525275484212 , 0.698403692736234 , chl } ;
Point ( 58 ) = { 2.759951242355413 , 0.05241513397146147 , 0.17213148370953002 , chl } ;
Point ( 59 ) = { 2.177757622958003 , -1.556492984472897 , -0.24668878934325966 , chl } ;
Point ( 60 ) = { 0.754205656103806 , -2.3115714977781057 , -0.5871898498763835 , chl } ;
Point ( 61 ) = { -0.6360112518579918 , -1.9738579106221419 , -0.787239764299214 , chl } ;
Point ( 62 ) = { -1.3376932519020541 , -1.004017926346449 , -0.8122671296836006 , chl } ;
Point ( 63 ) = { -1.29564862443585 , -0.05489911348760401 , -0.6616964448206729 , chl } ;
Point ( 64 ) = { -0.843048342285182 , 0.5280134421572051 , -0.36324198550019793 , chl } ;
Point ( 65 ) = { -0.28144004365704334 , 0.7601730054155423 , 0.03980134192681818 , chl } ;
Point ( 66 ) = { 0.3035295824561791 , 0.7600491906875652 , 0.4784431523654231 , chl } ;
Point ( 67 ) = { 0.9199842194954329 , 0.46539637513968946 , 0.85898762164134 , chl } ;
Point ( 68 ) = { 1.3565761087968293 , -0.28960242909135303 , 1.1050369101753474 , chl} ;
Point ( 69 ) = { 1.1731822800120106 , -1.379703483015467 , 1.1743504137300638 , chl } ;
Point ( 70 ) = { 0.12677525082456087 , -2.2205306926153163 , 1.0575555304399504 , chl } ;
Point ( 71 ) = { -1.4149083742774036 , -2.123392693167237 , 0.7777182134639975 , chl } ;
Point ( 72 ) = { -2.578098810714095 , -0.9115385369364595 , 0.3869615750867039 , chl } ;
Point ( 73 ) = { -2.617396901388063 , 0.8131290545349348 , -0.042426441940791815 , chl } ;
Point ( 74 ) = { -1.519534978483151 , 2.075027681837714 , -0.4311307291998383 ,chl } ;
Point ( 75 ) = { -0.0013982523685223125 , 2.262664880258062 , -0.7076950445670833 , chl } ;
Point ( 76 ) = { 1.0904894780807333 , 1.524076957756688 , -0.8224732234925678 , chl } ;
Point ( 77 ) = { 1.3924645307947185 , 0.49508923618028805 , -0.7576885570288749 , chl } ;
Point ( 78 ) = { 1.0973821586304005 , -0.28753828029896855 , -0.5285578366239804 , chl } ;
Point ( 79 ) = { 0.5653195817005767 , -0.6790041526252291 , -0.17138116978521986 , chl } ;
Point ( 80 ) = { -0.006094365895211701 , -0.78702375446634 , 0.2604308901007653 , chl } ;
Point ( 81 ) = { -0.6131185219236706 , -0.6618604127534563 , 0.6815464105132397 , chl } ;
Point ( 82 ) = { -1.1864879576569054 , -0.14875153965184632 , 1.0022483910148163 , chl } ;
Point ( 83 ) = { -1.3685975299257775 , 0.820125131873598 , 1.1631367507615349 , chl } ;
Point ( 84 ) = { -0.7512738396307992 , 1.8792447261831036 , 1.138522197770477 , chl } ;
Point ( 85 ) = { 0.6307017292989235 , 2.3185363179491993 , 0.9353623673446421 , chl} ;
Point ( 86 ) = { 2.102432966574378 , 1.6358431917854508 , 0.5920205852697957 , chl } ;
Point ( 87 ) = { 2.787732336958152 , 0.12374648093060293 , -0.1721314837095318 , chl } ;
Point ( 88 ) = { 2.2371515047024197 , -1.5272369557682306 , -0.5930894137772686 , chl } ;
Point ( 89 ) = { 0.7962757709861137 , -2.323652723061632 , -0.9371342603788905 , chl } ;
Point ( 90 ) = { -0.6328059987157433 , -1.978905787882623 , -1.139860220739232 , chl } ;
Point ( 91 ) = { -1.3311996937032167 , -0.9545118845463094 , -1.161385915399452 , chl } ;
Point ( 92 ) = { -1.2135805367649735 , 0.03128475360042304 , -0.9936815514931079 , chl } ;
Point ( 93 ) = { -0.6732805330736094 , 0.5805511139101843 , -0.6678657288538452 , chl } ;
Point ( 94 ) = { -0.09033892500926566 , 0.7418543963285364 , -0.25603937877470206 , chl } ;
Point ( 95 ) = { 0.4340551197114771 , 0.6823587702134163 , 0.1601599079065369 , chl } ;
Point ( 96 ) = { 0.9569631264126752 , 0.3902234903295676 , 0.5164112960655065 , chl } ;
Point ( 97 ) = { 1.3524247020884195 , -0.3088623439013176 , 0.7529165294582354 , chl } ;
Point ( 98 ) = { 1.194786165163871 , -1.3634633052722727 , 0.8227164139721845 , chl } ;
Point ( 99 ) = { 0.1832332224628232 , -2.225520520601271 , 0.7094685584520959 , chl } ;
Point ( 100 ) = { -1.3657242543849404 , -2.176985024769828 , 0.4326302169235332 , chl } ;
Point ( 101 ) = { -2.5780988107140947 , -0.989340459208424 , 0.042979305335344886 , chl } ;
Point ( 102 ) = { -2.6665810212805257 , 0.7595367229323435 , -0.38751443848125566 , chl } ;
Point ( 103 ) = { -1.5759929501214132 , 2.070037853851759 , -0.7792177011876926 , chl } ;
Point ( 104 ) = { -0.023002137520382937 , 2.2789050580012558 , -1.0593290443249628 , chl } ;
Point ( 105 ) = { 1.094640884789143 , 1.5048170429467234 , -1.1745936042096794 , chl } ;
Point ( 106 ) = { 1.3554856238774766 , 0.41991635137016614 , -1.1002648826047086 , chl } ;
Point ( 107 ) = { 0.9668566213751025 , -0.36522870077311725 , -0.8468410810828666 , chl } ;
Point ( 108 ) = { 0.3742184630527988 , -0.6973227617122347 , -0.46722189048674007 , chl } ;
Point ( 109 ) = { -0.17586217510678476 , -0.7344860827133608 , -0.044192853252881775 , chl } ;
Point ( 110 ) = { -0.6951866095945469 , -0.5756765456654293 , 0.3495613038408044 , chl } ;
Point ( 111 ) = { -1.192981515855743 , -0.09924549785170678 , 0.653129605298965 , chl } ;
Point ( 112 ) = { -1.3718027830680264 , 0.8150772546131169 , 0.810516294321517 , chl } ;
Point ( 113 ) = { -0.793343954513107 , 1.8671635008995777 , 0.7885777872679689 , chl } ;
Point ( 114 ) = { 0.5713078475545066 , 2.3477923466538653 , 0.5889617429106321 , chl } ;
Point ( 115 ) = { 2.074651871971639 , 1.7071745387445922 , 0.24775761785073458 , chl } ;
Point ( 116 ) = { 3.108860127172215 , 0.024064397231841263 , -0.2785145911759699 , chl } ;
Point ( 117 ) = { 2.403715641279906 , -1.8190844845070715 , -0.7001330935894715 , chl } ;
Point ( 118 ) = { 0.7166984427444838 , -2.6497668078235 , -1.0452730303106879 , chl } ;
Point ( 119 ) = { -0.9149667182682274 , -2.160258324707608 , -1.2488259343434487 , chl } ;
Point ( 120 ) = { -1.66175464675299 , -0.8955925777547085 , -1.2692695532411955 , chl } ;
Point ( 121 ) = { -1.4311199368582528 , 0.2892169914537671 , -1.0962705913342705 , chl } ;
Point ( 122 ) = { -0.7199783570485283 , 0.9172038438284595 , -0.7619996424402349 , chl } ;
Point ( 123 ) = { 0.0007196777803934185 , 1.0700733631032546 , -0.34745918909960416 , chl } ;
Point ( 124 ) = { 0.6459411660626244 , 0.9465699581133741 , 0.06180497634394533 , chl } ;
Point ( 125 ) = { 1.2693568722832966 , 0.5150447437731858 , 0.4105493895920491 , chl } ;
Point ( 126 ) = { 1.6790218167017708 , -0.3854873559678102 , 0.6441053477508714 , chl } ;
Point ( 127 ) = { 1.4030040950026057 , -1.6265508334618066 , 0.7140555322469632 , chl } ;
Point ( 128 ) = { 0.1711508159640611 , -2.561170297075288 , 0.6019037685873319 , chl } ;
Point ( 129 ) = { -1.5976417054989989 , -2.420335722330928 , 0.3259921614377266 , chl } ;
Point ( 130 ) = { -2.9135090073390635 , -1.0133825753855001 , -0.06331706178149199 , chl } ;
Point ( 131 ) = { -2.928895930194876 , 0.9697655380266869 , -0.4941524939670625 , chl } ;
Point ( 132 ) = { -1.6229683020284986 , 2.4026037470324404 , -0.8867824910524555 , chl } ;
Point ( 133 ) = { 0.17186385700545315 , 2.552029568019423 , -1.1679899260501838 , chl } ;
Point ( 134 ) = { 1.4238037098494154 , 1.5695387730402302 , -1.2834047859170439 , chl } ;
Point ( 135 ) = { 1.6450251484064242 , 0.24863570008151248 , -1.206126789078166 , chl } ;
Point ( 136 ) = { 1.098073449302635 , -0.6774552091263697 , -0.9451960126454583 , chl } ;
Point ( 137 ) = { 0.34717007923000454 , -1.036863251529345 , -0.5586417008116421 , chl } ;
Point ( 138 ) = { -0.327482275370063 , -1.0386687457985095 , -0.13832676683927092 , chl } ;
Point ( 139 ) = { -0.9634468772601343 , -0.7803442243764692 , 0.24697226399964212 , chl } ;
Point ( 140 ) = { -1.527549708580324 , -0.12756838816234797 , 0.5452459674572215 , chl } ;
Point ( 141 ) = { -1.6559444580049674 , 0.9933100317200874 , 0.7015505807173008 , chl } ;
Point ( 142 ) = { -0.8989220436626154 , 2.185810977810483 , 0.6804390173361712 , chl } ;
Point ( 143 ) = { 0.7011645464901515 , 2.657721095508033 , 0.4819180630984292 , chl } ;
Point ( 144 ) = { 2.378610001476533 , 1.8509418193274145 , 0.14137451038429538 , chl } ;



//Construct Edges:
Line( 1 ) = { 28 , 0 } ;
Line( 2 ) = { 0 , 1 } ;
Line( 3 ) = { 1 , 2 } ;
Line( 4 ) = { 2 , 3 } ;
Line( 5 ) = { 3 , 4 } ;
Line( 6 ) = { 4 , 5 } ;
Line( 7 ) = { 5 , 6 } ;
Line( 8 ) = { 6 , 7 } ;
Line( 9 ) = { 7 , 8 } ;
Line( 10 ) = { 8 , 9 } ;
Line( 11 ) = { 9 , 10 } ;
Line( 12 ) = { 10 , 11 } ;
Line( 13 ) = { 11 , 12 } ;
Line( 14 ) = { 12 , 13 } ;
Line( 15 ) = { 13 , 14 } ;
Line( 16 ) = { 14 , 15 } ;
Line( 17 ) = { 15 , 16 } ;
Line( 18 ) = { 16 , 17 } ;
Line( 19 ) = { 17 , 18 } ;
Line( 20 ) = { 18 , 19 } ;
Line( 21 ) = { 19 , 20 } ;
Line( 22 ) = { 20 , 21 } ;
Line( 23 ) = { 21 , 22 } ;
Line( 24 ) = { 22 , 23 } ;
Line( 25 ) = { 23 , 24 } ;
Line( 26 ) = { 24 , 25 } ;
Line( 27 ) = { 25 , 26 } ;
Line( 28 ) = { 26 , 27 } ;
Line( 29 ) = { 27 , 28 } ;
Line( 30 ) = { 57 , 29 } ;
Line( 31 ) = { 0 , 57 } ;
Line( 32 ) = { 29 , 0 } ;
Line( 33 ) = { 29 , 30 } ;
Line( 34 ) = { 1 , 29 } ;
Line( 35 ) = { 30 , 1 } ;
Line( 36 ) = { 30 , 31 } ;
Line( 37 ) = { 2 , 30 } ;
Line( 38 ) = { 31 , 2 } ;
Line( 39 ) = { 31 , 32 } ;
Line( 40 ) = { 3 , 31 } ;
Line( 41 ) = { 32 , 3 } ;
Line( 42 ) = { 32 , 33 } ;
Line( 43 ) = { 4 , 32 } ;
Line( 44 ) = { 33 , 4 } ;
Line( 45 ) = { 33 , 34 } ;
Line( 46 ) = { 5 , 33 } ;
Line( 47 ) = { 34 , 5 } ;
Line( 48 ) = { 34 , 35 } ;
Line( 49 ) = { 6 , 34 } ;
Line( 50 ) = { 35 , 6 } ;
Line( 51 ) = { 35 , 36 } ;
Line( 52 ) = { 7 , 35 } ;
Line( 53 ) = { 36 , 7 } ;
Line( 54 ) = { 36 , 37 } ;
Line( 55 ) = { 8 , 36 } ;
Line( 56 ) = { 37 , 8 } ;
Line( 57 ) = { 37 , 38 } ;
Line( 58 ) = { 9 , 37 } ;
Line( 59 ) = { 38 , 9 } ;
Line( 60 ) = { 38 , 39 } ;
Line( 61 ) = { 10 , 38 } ;
Line( 62 ) = { 39 , 10 } ;
Line( 63 ) = { 39 , 40 } ;
Line( 64 ) = { 11 , 39 } ;
Line( 65 ) = { 40 , 11 } ;
Line( 66 ) = { 40 , 41 } ;
Line( 67 ) = { 12 , 40 } ;
Line( 68 ) = { 41 , 12 } ;
Line( 69 ) = { 41 , 42 } ;
Line( 70 ) = { 13 , 41 } ;
Line( 71 ) = { 42 , 13 } ;
Line( 72 ) = { 42 , 43 } ;
Line( 73 ) = { 14 , 42 } ;
Line( 74 ) = { 43 , 14 } ;
Line( 75 ) = { 43 , 44 } ;
Line( 76 ) = { 15 , 43 } ;
Line( 77 ) = { 44 , 15 } ;
Line( 78 ) = { 44 , 45 } ;
Line( 79 ) = { 16 , 44 } ;
Line( 80 ) = { 45 , 16 } ;
Line( 81 ) = { 45 , 46 } ;
Line( 82 ) = { 17 , 45 } ;
Line( 83 ) = { 46 , 17 } ;
Line( 84 ) = { 46 , 47 } ;
Line( 85 ) = { 18 , 46 } ;
Line( 86 ) = { 47 , 18 } ;
Line( 87 ) = { 47 , 48 } ;
Line( 88 ) = { 19 , 47 } ;
Line( 89 ) = { 48 , 19 } ;
Line( 90 ) = { 48 , 49 } ;
Line( 91 ) = { 20 , 48 } ;
Line( 92 ) = { 49 , 20 } ;
Line( 93 ) = { 49 , 50 } ;
Line( 94 ) = { 21 , 49 } ;
Line( 95 ) = { 50 , 21 } ;
Line( 96 ) = { 50 , 51 } ;
Line( 97 ) = { 22 , 50 } ;
Line( 98 ) = { 51 , 22 } ;
Line( 99 ) = { 51 , 52 } ;
Line( 100 ) = { 23 , 51 } ;
Line( 101 ) = { 52 , 23 } ;
Line( 102 ) = { 52 , 53 } ;
Line( 103 ) = { 24 , 52 } ;
Line( 104 ) = { 53 , 24 } ;
Line( 105 ) = { 53 , 54 } ;
Line( 106 ) = { 25 , 53 } ;
Line( 107 ) = { 54 , 25 } ;
Line( 108 ) = { 54 , 55 } ;
Line( 109 ) = { 26 , 54 } ;
Line( 110 ) = { 55 , 26 } ;
Line( 111 ) = { 55 , 56 } ;
Line( 112 ) = { 27 , 55 } ;
Line( 113 ) = { 56 , 27 } ;
Line( 114 ) = { 56 , 57 } ;
Line( 115 ) = { 28 , 56 } ;
Line( 116 ) = { 57 , 28 } ;
Line( 117 ) = { 86 , 58 } ;
Line( 118 ) = { 29 , 86 } ;
Line( 119 ) = { 58 , 29 } ;
Line( 120 ) = { 58 , 59 } ;
Line( 121 ) = { 30 , 58 } ;
Line( 122 ) = { 59 , 30 } ;
Line( 123 ) = { 59 , 60 } ;
Line( 124 ) = { 31 , 59 } ;
Line( 125 ) = { 60 , 31 } ;
Line( 126 ) = { 60 , 61 } ;
Line( 127 ) = { 32 , 60 } ;
Line( 128 ) = { 61 , 32 } ;
Line( 129 ) = { 61 , 62 } ;
Line( 130 ) = { 33 , 61 } ;
Line( 131 ) = { 62 , 33 } ;
Line( 132 ) = { 62 , 63 } ;
Line( 133 ) = { 34 , 62 } ;
Line( 134 ) = { 63 , 34 } ;
Line( 135 ) = { 63 , 64 } ;
Line( 136 ) = { 35 , 63 } ;
Line( 137 ) = { 64 , 35 } ;
Line( 138 ) = { 64 , 65 } ;
Line( 139 ) = { 36 , 64 } ;
Line( 140 ) = { 65 , 36 } ;
Line( 141 ) = { 65 , 66 } ;
Line( 142 ) = { 37 , 65 } ;
Line( 143 ) = { 66 , 37 } ;
Line( 144 ) = { 66 , 67 } ;
Line( 145 ) = { 38 , 66 } ;
Line( 146 ) = { 67 , 38 } ;
Line( 147 ) = { 67 , 68 } ;
Line( 148 ) = { 39 , 67 } ;
Line( 149 ) = { 68 , 39 } ;
Line( 150 ) = { 68 , 69 } ;
Line( 151 ) = { 40 , 68 } ;
Line( 152 ) = { 69 , 40 } ;
Line( 153 ) = { 69 , 70 } ;
Line( 154 ) = { 41 , 69 } ;
Line( 155 ) = { 70 , 41 } ;
Line( 156 ) = { 70 , 71 } ;
Line( 157 ) = { 42 , 70 } ;
Line( 158 ) = { 71 , 42 } ;
Line( 159 ) = { 71 , 72 } ;
Line( 160 ) = { 43 , 71 } ;
Line( 161 ) = { 72 , 43 } ;
Line( 162 ) = { 72 , 73 } ;
Line( 163 ) = { 44 , 72 } ;
Line( 164 ) = { 73 , 44 } ;
Line( 165 ) = { 73 , 74 } ;
Line( 166 ) = { 45 , 73 } ;
Line( 167 ) = { 74 , 45 } ;
Line( 168 ) = { 74 , 75 } ;
Line( 169 ) = { 46 , 74 } ;
Line( 170 ) = { 75 , 46 } ;
Line( 171 ) = { 75 , 76 } ;
Line( 172 ) = { 47 , 75 } ;
Line( 173 ) = { 76 , 47 } ;
Line( 174 ) = { 76 , 77 } ;
Line( 175 ) = { 48 , 76 } ;
Line( 176 ) = { 77 , 48 } ;
Line( 177 ) = { 77 , 78 } ;
Line( 178 ) = { 49 , 77 } ;
Line( 179 ) = { 78 , 49 } ;
Line( 180 ) = { 78 , 79 } ;
Line( 181 ) = { 50 , 78 } ;
Line( 182 ) = { 79 , 50 } ;
Line( 183 ) = { 79 , 80 } ;
Line( 184 ) = { 51 , 79 } ;
Line( 185 ) = { 80 , 51 } ;
Line( 186 ) = { 80 , 81 } ;
Line( 187 ) = { 52 , 80 } ;
Line( 188 ) = { 81 , 52 } ;
Line( 189 ) = { 81 , 82 } ;
Line( 190 ) = { 53 , 81 } ;
Line( 191 ) = { 82 , 53 } ;
Line( 192 ) = { 82 , 83 } ;
Line( 193 ) = { 54 , 82 } ;
Line( 194 ) = { 83 , 54 } ;
Line( 195 ) = { 83 , 84 } ;
Line( 196 ) = { 55 , 83 } ;
Line( 197 ) = { 84 , 55 } ;
Line( 198 ) = { 84 , 85 } ;
Line( 199 ) = { 56 , 84 } ;
Line( 200 ) = { 85 , 56 } ;
Line( 201 ) = { 85 , 86 } ;
Line( 202 ) = { 57 , 85 } ;
Line( 203 ) = { 86 , 57 } ;
Line( 204 ) = { 115 , 87 } ;
Line( 205 ) = { 58 , 115 } ;
Line( 206 ) = { 87 , 58 } ;
Line( 207 ) = { 87 , 88 } ;
Line( 208 ) = { 59 , 87 } ;
Line( 209 ) = { 88 , 59 } ;
Line( 210 ) = { 88 , 89 } ;
Line( 211 ) = { 60 , 88 } ;
Line( 212 ) = { 89 , 60 } ;
Line( 213 ) = { 89 , 90 } ;
Line( 214 ) = { 61 , 89 } ;
Line( 215 ) = { 90 , 61 } ;
Line( 216 ) = { 90 , 91 } ;
Line( 217 ) = { 62 , 90 } ;
Line( 218 ) = { 91 , 62 } ;
Line( 219 ) = { 91 , 92 } ;
Line( 220 ) = { 63 , 91 } ;
Line( 221 ) = { 92 , 63 } ;
Line( 222 ) = { 92 , 93 } ;
Line( 223 ) = { 64 , 92 } ;
Line( 224 ) = { 93 , 64 } ;
Line( 225 ) = { 93 , 94 } ;
Line( 226 ) = { 65 , 93 } ;
Line( 227 ) = { 94 , 65 } ;
Line( 228 ) = { 94 , 95 } ;
Line( 229 ) = { 66 , 94 } ;
Line( 230 ) = { 95 , 66 } ;
Line( 231 ) = { 95 , 96 } ;
Line( 232 ) = { 67 , 95 } ;
Line( 233 ) = { 96 , 67 } ;
Line( 234 ) = { 96 , 97 } ;
Line( 235 ) = { 68 , 96 } ;
Line( 236 ) = { 97 , 68 } ;
Line( 237 ) = { 97 , 98 } ;
Line( 238 ) = { 69 , 97 } ;
Line( 239 ) = { 98 , 69 } ;
Line( 240 ) = { 98 , 99 } ;
Line( 241 ) = { 70 , 98 } ;
Line( 242 ) = { 99 , 70 } ;
Line( 243 ) = { 99 , 100 } ;
Line( 244 ) = { 71 , 99 } ;
Line( 245 ) = { 100 , 71 } ;
Line( 246 ) = { 100 , 101 } ;
Line( 247 ) = { 72 , 100 } ;
Line( 248 ) = { 101 , 72 } ;
Line( 249 ) = { 101 , 102 } ;
Line( 250 ) = { 73 , 101 } ;
Line( 251 ) = { 102 , 73 } ;
Line( 252 ) = { 102 , 103 } ;
Line( 253 ) = { 74 , 102 } ;
Line( 254 ) = { 103 , 74 } ;
Line( 255 ) = { 103 , 104 } ;
Line( 256 ) = { 75 , 103 } ;
Line( 257 ) = { 104 , 75 } ;
Line( 258 ) = { 104 , 105 } ;
Line( 259 ) = { 76 , 104 } ;
Line( 260 ) = { 105 , 76 } ;
Line( 261 ) = { 105 , 106 } ;
Line( 262 ) = { 77 , 105 } ;
Line( 263 ) = { 106 , 77 } ;
Line( 264 ) = { 106 , 107 } ;
Line( 265 ) = { 78 , 106 } ;
Line( 266 ) = { 107 , 78 } ;
Line( 267 ) = { 107 , 108 } ;
Line( 268 ) = { 79 , 107 } ;
Line( 269 ) = { 108 , 79 } ;
Line( 270 ) = { 108 , 109 } ;
Line( 271 ) = { 80 , 108 } ;
Line( 272 ) = { 109 , 80 } ;
Line( 273 ) = { 109 , 110 } ;
Line( 274 ) = { 81 , 109 } ;
Line( 275 ) = { 110 , 81 } ;
Line( 276 ) = { 110 , 111 } ;
Line( 277 ) = { 82 , 110 } ;
Line( 278 ) = { 111 , 82 } ;
Line( 279 ) = { 111 , 112 } ;
Line( 280 ) = { 83 , 111 } ;
Line( 281 ) = { 112 , 83 } ;
Line( 282 ) = { 112 , 113 } ;
Line( 283 ) = { 84 , 112 } ;
Line( 284 ) = { 113 , 84 } ;
Line( 285 ) = { 113 , 114 } ;
Line( 286 ) = { 85 , 113 } ;
Line( 287 ) = { 114 , 85 } ;
Line( 288 ) = { 114 , 115 } ;
Line( 289 ) = { 86 , 114 } ;
Line( 290 ) = { 115 , 86 } ;
Line( 291 ) = { 144 , 116 } ;
Line( 292 ) = { 87 , 144 } ;
Line( 293 ) = { 116 , 87 } ;
Line( 294 ) = { 116 , 117 } ;
Line( 295 ) = { 88 , 116 } ;
Line( 296 ) = { 117 , 88 } ;
Line( 297 ) = { 117 , 118 } ;
Line( 298 ) = { 89 , 117 } ;
Line( 299 ) = { 118 , 89 } ;
Line( 300 ) = { 118 , 119 } ;
Line( 301 ) = { 90 , 118 } ;
Line( 302 ) = { 119 , 90 } ;
Line( 303 ) = { 119 , 120 } ;
Line( 304 ) = { 91 , 119 } ;
Line( 305 ) = { 120 , 91 } ;
Line( 306 ) = { 120 , 121 } ;
Line( 307 ) = { 92 , 120 } ;
Line( 308 ) = { 121 , 92 } ;
Line( 309 ) = { 121 , 122 } ;
Line( 310 ) = { 93 , 121 } ;
Line( 311 ) = { 122 , 93 } ;
Line( 312 ) = { 122 , 123 } ;
Line( 313 ) = { 94 , 122 } ;
Line( 314 ) = { 123 , 94 } ;
Line( 315 ) = { 123 , 124 } ;
Line( 316 ) = { 95 , 123 } ;
Line( 317 ) = { 124 , 95 } ;
Line( 318 ) = { 124 , 125 } ;
Line( 319 ) = { 96 , 124 } ;
Line( 320 ) = { 125 , 96 } ;
Line( 321 ) = { 125 , 126 } ;
Line( 322 ) = { 97 , 125 } ;
Line( 323 ) = { 126 , 97 } ;
Line( 324 ) = { 126 , 127 } ;
Line( 325 ) = { 98 , 126 } ;
Line( 326 ) = { 127 , 98 } ;
Line( 327 ) = { 127 , 128 } ;
Line( 328 ) = { 99 , 127 } ;
Line( 329 ) = { 128 , 99 } ;
Line( 330 ) = { 128 , 129 } ;
Line( 331 ) = { 100 , 128 } ;
Line( 332 ) = { 129 , 100 } ;
Line( 333 ) = { 129 , 130 } ;
Line( 334 ) = { 101 , 129 } ;
Line( 335 ) = { 130 , 101 } ;
Line( 336 ) = { 130 , 131 } ;
Line( 337 ) = { 102 , 130 } ;
Line( 338 ) = { 131 , 102 } ;
Line( 339 ) = { 131 , 132 } ;
Line( 340 ) = { 103 , 131 } ;
Line( 341 ) = { 132 , 103 } ;
Line( 342 ) = { 132 , 133 } ;
Line( 343 ) = { 104 , 132 } ;
Line( 344 ) = { 133 , 104 } ;
Line( 345 ) = { 133 , 134 } ;
Line( 346 ) = { 105 , 133 } ;
Line( 347 ) = { 134 , 105 } ;
Line( 348 ) = { 134 , 135 } ;
Line( 349 ) = { 106 , 134 } ;
Line( 350 ) = { 135 , 106 } ;
Line( 351 ) = { 135 , 136 } ;
Line( 352 ) = { 107 , 135 } ;
Line( 353 ) = { 136 , 107 } ;
Line( 354 ) = { 136 , 137 } ;
Line( 355 ) = { 108 , 136 } ;
Line( 356 ) = { 137 , 108 } ;
Line( 357 ) = { 137 , 138 } ;
Line( 358 ) = { 109 , 137 } ;
Line( 359 ) = { 138 , 109 } ;
Line( 360 ) = { 138 , 139 } ;
Line( 361 ) = { 110 , 138 } ;
Line( 362 ) = { 139 , 110 } ;
Line( 363 ) = { 139 , 140 } ;
Line( 364 ) = { 111 , 139 } ;
Line( 365 ) = { 140 , 111 } ;
Line( 366 ) = { 140 , 141 } ;
Line( 367 ) = { 112 , 140 } ;
Line( 368 ) = { 141 , 112 } ;
Line( 369 ) = { 141 , 142 } ;
Line( 370 ) = { 113 , 141 } ;
Line( 371 ) = { 142 , 113 } ;
Line( 372 ) = { 142 , 143 } ;
Line( 373 ) = { 114 , 142 } ;
Line( 374 ) = { 143 , 114 } ;
Line( 375 ) = { 143 , 144 } ;
Line( 376 ) = { 115 , 143 } ;
Line( 377 ) = { 144 , 115 } ;
Line( 378 ) = { 116 , 28 } ;
Line( 379 ) = { 0 , 116 } ;
Line( 380 ) = { 117 , 0 } ;
Line( 381 ) = { 1 , 117 } ;
Line( 382 ) = { 118 , 1 } ;
Line( 383 ) = { 2 , 118 } ;
Line( 384 ) = { 119 , 2 } ;
Line( 385 ) = { 3 , 119 } ;
Line( 386 ) = { 120 , 3 } ;
Line( 387 ) = { 4 , 120 } ;
Line( 388 ) = { 121 , 4 } ;
Line( 389 ) = { 5 , 121 } ;
Line( 390 ) = { 122 , 5 } ;
Line( 391 ) = { 6 , 122 } ;
Line( 392 ) = { 123 , 6 } ;
Line( 393 ) = { 7 , 123 } ;
Line( 394 ) = { 124 , 7 } ;
Line( 395 ) = { 8 , 124 } ;
Line( 396 ) = { 125 , 8 } ;
Line( 397 ) = { 9 , 125 } ;
Line( 398 ) = { 126 , 9 } ;
Line( 399 ) = { 10 , 126 } ;
Line( 400 ) = { 127 , 10 } ;
Line( 401 ) = { 11 , 127 } ;
Line( 402 ) = { 128 , 11 } ;
Line( 403 ) = { 12 , 128 } ;
Line( 404 ) = { 129 , 12 } ;
Line( 405 ) = { 13 , 129 } ;
Line( 406 ) = { 130 , 13 } ;
Line( 407 ) = { 14 , 130 } ;
Line( 408 ) = { 131 , 14 } ;
Line( 409 ) = { 15 , 131 } ;
Line( 410 ) = { 132 , 15 } ;
Line( 411 ) = { 16 , 132 } ;
Line( 412 ) = { 133 , 16 } ;
Line( 413 ) = { 17 , 133 } ;
Line( 414 ) = { 134 , 17 } ;
Line( 415 ) = { 18 , 134 } ;
Line( 416 ) = { 135 , 18 } ;
Line( 417 ) = { 19 , 135 } ;
Line( 418 ) = { 136 , 19 } ;
Line( 419 ) = { 20 , 136 } ;
Line( 420 ) = { 137 , 20 } ;
Line( 421 ) = { 21 , 137 } ;
Line( 422 ) = { 138 , 21 } ;
Line( 423 ) = { 22 , 138 } ;
Line( 424 ) = { 139 , 22 } ;
Line( 425 ) = { 23 , 139 } ;
Line( 426 ) = { 140 , 23 } ;
Line( 427 ) = { 24 , 140 } ;
Line( 428 ) = { 141 , 24 } ;
Line( 429 ) = { 25 , 141 } ;
Line( 430 ) = { 142 , 25 } ;
Line( 431 ) = { 26 , 142 } ;
Line( 432 ) = { 143 , 26 } ;
Line( 433 ) = { 27 , 143 } ;
Line( 434 ) = { 144 , 27 } ;
Line( 435 ) = { 28 , 144 } ;



//Construct Faces:
Line Loop( 0 ) = { 1 , 31 , 116 };
Plane Surface( 0 ) = { 0 } ;
Line Loop( 1 ) = { -30 , -31 , -32 };
Plane Surface( 1 ) = { 1 } ;
Line Loop( 2 ) = { 2 , 34 , 32 };
Plane Surface( 2 ) = { 2 } ;
Line Loop( 3 ) = { -33 , -34 , -35 };
Plane Surface( 3 ) = { 3 } ;
Line Loop( 4 ) = { 3 , 37 , 35 };
Plane Surface( 4 ) = { 4 } ;
Line Loop( 5 ) = { -36 , -37 , -38 };
Plane Surface( 5 ) = { 5 } ;
Line Loop( 6 ) = { 4 , 40 , 38 };
Plane Surface( 6 ) = { 6 } ;
Line Loop( 7 ) = { -39 , -40 , -41 };
Plane Surface( 7 ) = { 7 } ;
Line Loop( 8 ) = { 5 , 43 , 41 };
Plane Surface( 8 ) = { 8 } ;
Line Loop( 9 ) = { -42 , -43 , -44 };
Plane Surface( 9 ) = { 9 } ;
Line Loop( 10 ) = { 6 , 46 , 44 };
Plane Surface( 10 ) = { 10 } ;
Line Loop( 11 ) = { -45 , -46 , -47 };
Plane Surface( 11 ) = { 11 } ;
Line Loop( 12 ) = { 7 , 49 , 47 };
Plane Surface( 12 ) = { 12 } ;
Line Loop( 13 ) = { -48 , -49 , -50 };
Plane Surface( 13 ) = { 13 } ;
Line Loop( 14 ) = { 8 , 52 , 50 };
Plane Surface( 14 ) = { 14 } ;
Line Loop( 15 ) = { -51 , -52 , -53 };
Plane Surface( 15 ) = { 15 } ;
Line Loop( 16 ) = { 9 , 55 , 53 };
Plane Surface( 16 ) = { 16 } ;
Line Loop( 17 ) = { -54 , -55 , -56 };
Plane Surface( 17 ) = { 17 } ;
Line Loop( 18 ) = { 10 , 58 , 56 };
Plane Surface( 18 ) = { 18 } ;
Line Loop( 19 ) = { -57 , -58 , -59 };
Plane Surface( 19 ) = { 19 } ;
Line Loop( 20 ) = { 11 , 61 , 59 };
Plane Surface( 20 ) = { 20 } ;
Line Loop( 21 ) = { -60 , -61 , -62 };
Plane Surface( 21 ) = { 21 } ;
Line Loop( 22 ) = { 12 , 64 , 62 };
Plane Surface( 22 ) = { 22 } ;
Line Loop( 23 ) = { -63 , -64 , -65 };
Plane Surface( 23 ) = { 23 } ;
Line Loop( 24 ) = { 13 , 67 , 65 };
Plane Surface( 24 ) = { 24 } ;
Line Loop( 25 ) = { -66 , -67 , -68 };
Plane Surface( 25 ) = { 25 } ;
Line Loop( 26 ) = { 14 , 70 , 68 };
Plane Surface( 26 ) = { 26 } ;
Line Loop( 27 ) = { -69 , -70 , -71 };
Plane Surface( 27 ) = { 27 } ;
Line Loop( 28 ) = { 15 , 73 , 71 };
Plane Surface( 28 ) = { 28 } ;
Line Loop( 29 ) = { -72 , -73 , -74 };
Plane Surface( 29 ) = { 29 } ;
Line Loop( 30 ) = { 16 , 76 , 74 };
Plane Surface( 30 ) = { 30 } ;
Line Loop( 31 ) = { -75 , -76 , -77 };
Plane Surface( 31 ) = { 31 } ;
Line Loop( 32 ) = { 17 , 79 , 77 };
Plane Surface( 32 ) = { 32 } ;
Line Loop( 33 ) = { -78 , -79 , -80 };
Plane Surface( 33 ) = { 33 } ;
Line Loop( 34 ) = { 18 , 82 , 80 };
Plane Surface( 34 ) = { 34 } ;
Line Loop( 35 ) = { -81 , -82 , -83 };
Plane Surface( 35 ) = { 35 } ;
Line Loop( 36 ) = { 19 , 85 , 83 };
Plane Surface( 36 ) = { 36 } ;
Line Loop( 37 ) = { -84 , -85 , -86 };
Plane Surface( 37 ) = { 37 } ;
Line Loop( 38 ) = { 20 , 88 , 86 };
Plane Surface( 38 ) = { 38 } ;
Line Loop( 39 ) = { -87 , -88 , -89 };
Plane Surface( 39 ) = { 39 } ;
Line Loop( 40 ) = { 21 , 91 , 89 };
Plane Surface( 40 ) = { 40 } ;
Line Loop( 41 ) = { -90 , -91 , -92 };
Plane Surface( 41 ) = { 41 } ;
Line Loop( 42 ) = { 22 , 94 , 92 };
Plane Surface( 42 ) = { 42 } ;
Line Loop( 43 ) = { -93 , -94 , -95 };
Plane Surface( 43 ) = { 43 } ;
Line Loop( 44 ) = { 23 , 97 , 95 };
Plane Surface( 44 ) = { 44 } ;
Line Loop( 45 ) = { -96 , -97 , -98 };
Plane Surface( 45 ) = { 45 } ;
Line Loop( 46 ) = { 24 , 100 , 98 };
Plane Surface( 46 ) = { 46 } ;
Line Loop( 47 ) = { -99 , -100 , -101 };
Plane Surface( 47 ) = { 47 } ;
Line Loop( 48 ) = { 25 , 103 , 101 };
Plane Surface( 48 ) = { 48 } ;
Line Loop( 49 ) = { -102 , -103 , -104 };
Plane Surface( 49 ) = { 49 } ;
Line Loop( 50 ) = { 26 , 106 , 104 };
Plane Surface( 50 ) = { 50 } ;
Line Loop( 51 ) = { -105 , -106 , -107 };
Plane Surface( 51 ) = { 51 } ;
Line Loop( 52 ) = { 27 , 109 , 107 };
Plane Surface( 52 ) = { 52 } ;
Line Loop( 53 ) = { -108 , -109 , -110 };
Plane Surface( 53 ) = { 53 } ;
Line Loop( 54 ) = { 28 , 112 , 110 };
Plane Surface( 54 ) = { 54 } ;
Line Loop( 55 ) = { -111 , -112 , -113 };
Plane Surface( 55 ) = { 55 } ;
Line Loop( 56 ) = { 29 , 115 , 113 };
Plane Surface( 56 ) = { 56 } ;
Line Loop( 57 ) = { -114 , -115 , -116 };
Plane Surface( 57 ) = { 57 } ;
Line Loop( 58 ) = { 30 , 118 , 203 };
Plane Surface( 58 ) = { 58 } ;
Line Loop( 59 ) = { -117 , -118 , -119 };
Plane Surface( 59 ) = { 59 } ;
Line Loop( 60 ) = { 33 , 121 , 119 };
Plane Surface( 60 ) = { 60 } ;
Line Loop( 61 ) = { -120 , -121 , -122 };
Plane Surface( 61 ) = { 61 } ;
Line Loop( 62 ) = { 36 , 124 , 122 };
Plane Surface( 62 ) = { 62 } ;
Line Loop( 63 ) = { -123 , -124 , -125 };
Plane Surface( 63 ) = { 63 } ;
Line Loop( 64 ) = { 39 , 127 , 125 };
Plane Surface( 64 ) = { 64 } ;
Line Loop( 65 ) = { -126 , -127 , -128 };
Plane Surface( 65 ) = { 65 } ;
Line Loop( 66 ) = { 42 , 130 , 128 };
Plane Surface( 66 ) = { 66 } ;
Line Loop( 67 ) = { -129 , -130 , -131 };
Plane Surface( 67 ) = { 67 } ;
Line Loop( 68 ) = { 45 , 133 , 131 };
Plane Surface( 68 ) = { 68 } ;
Line Loop( 69 ) = { -132 , -133 , -134 };
Plane Surface( 69 ) = { 69 } ;
Line Loop( 70 ) = { 48 , 136 , 134 };
Plane Surface( 70 ) = { 70 } ;
Line Loop( 71 ) = { -135 , -136 , -137 };
Plane Surface( 71 ) = { 71 } ;
Line Loop( 72 ) = { 51 , 139 , 137 };
Plane Surface( 72 ) = { 72 } ;
Line Loop( 73 ) = { -138 , -139 , -140 };
Plane Surface( 73 ) = { 73 } ;
Line Loop( 74 ) = { 54 , 142 , 140 };
Plane Surface( 74 ) = { 74 } ;
Line Loop( 75 ) = { -141 , -142 , -143 };
Plane Surface( 75 ) = { 75 } ;
Line Loop( 76 ) = { 57 , 145 , 143 };
Plane Surface( 76 ) = { 76 } ;
Line Loop( 77 ) = { -144 , -145 , -146 };
Plane Surface( 77 ) = { 77 } ;
Line Loop( 78 ) = { 60 , 148 , 146 };
Plane Surface( 78 ) = { 78 } ;
Line Loop( 79 ) = { -147 , -148 , -149 };
Plane Surface( 79 ) = { 79 } ;
Line Loop( 80 ) = { 63 , 151 , 149 };
Plane Surface( 80 ) = { 80 } ;
Line Loop( 81 ) = { -150 , -151 , -152 };
Plane Surface( 81 ) = { 81 } ;
Line Loop( 82 ) = { 66 , 154 , 152 };
Plane Surface( 82 ) = { 82 } ;
Line Loop( 83 ) = { -153 , -154 , -155 };
Plane Surface( 83 ) = { 83 } ;
Line Loop( 84 ) = { 69 , 157 , 155 };
Plane Surface( 84 ) = { 84 } ;
Line Loop( 85 ) = { -156 , -157 , -158 };
Plane Surface( 85 ) = { 85 } ;
Line Loop( 86 ) = { 72 , 160 , 158 };
Plane Surface( 86 ) = { 86 } ;
Line Loop( 87 ) = { -159 , -160 , -161 };
Plane Surface( 87 ) = { 87 } ;
Line Loop( 88 ) = { 75 , 163 , 161 };
Plane Surface( 88 ) = { 88 } ;
Line Loop( 89 ) = { -162 , -163 , -164 };
Plane Surface( 89 ) = { 89 } ;
Line Loop( 90 ) = { 78 , 166 , 164 };
Plane Surface( 90 ) = { 90 } ;
Line Loop( 91 ) = { -165 , -166 , -167 };
Plane Surface( 91 ) = { 91 } ;
Line Loop( 92 ) = { 81 , 169 , 167 };
Plane Surface( 92 ) = { 92 } ;
Line Loop( 93 ) = { -168 , -169 , -170 };
Plane Surface( 93 ) = { 93 } ;
Line Loop( 94 ) = { 84 , 172 , 170 };
Plane Surface( 94 ) = { 94 } ;
Line Loop( 95 ) = { -171 , -172 , -173 };
Plane Surface( 95 ) = { 95 } ;
Line Loop( 96 ) = { 87 , 175 , 173 };
Plane Surface( 96 ) = { 96 } ;
Line Loop( 97 ) = { -174 , -175 , -176 };
Plane Surface( 97 ) = { 97 } ;
Line Loop( 98 ) = { 90 , 178 , 176 };
Plane Surface( 98 ) = { 98 } ;
Line Loop( 99 ) = { -177 , -178 , -179 };
Plane Surface( 99 ) = { 99 } ;
Line Loop( 100 ) = { 93 , 181 , 179 };
Plane Surface( 100 ) = { 100 } ;
Line Loop( 101 ) = { -180 , -181 , -182 };
Plane Surface( 101 ) = { 101 } ;
Line Loop( 102 ) = { 96 , 184 , 182 };
Plane Surface( 102 ) = { 102 } ;
Line Loop( 103 ) = { -183 , -184 , -185 };
Plane Surface( 103 ) = { 103 } ;
Line Loop( 104 ) = { 99 , 187 , 185 };
Plane Surface( 104 ) = { 104 } ;
Line Loop( 105 ) = { -186 , -187 , -188 };
Plane Surface( 105 ) = { 105 } ;
Line Loop( 106 ) = { 102 , 190 , 188 };
Plane Surface( 106 ) = { 106 } ;
Line Loop( 107 ) = { -189 , -190 , -191 };
Plane Surface( 107 ) = { 107 } ;
Line Loop( 108 ) = { 105 , 193 , 191 };
Plane Surface( 108 ) = { 108 } ;
Line Loop( 109 ) = { -192 , -193 , -194 };
Plane Surface( 109 ) = { 109 } ;
Line Loop( 110 ) = { 108 , 196 , 194 };
Plane Surface( 110 ) = { 110 } ;
Line Loop( 111 ) = { -195 , -196 , -197 };
Plane Surface( 111 ) = { 111 } ;
Line Loop( 112 ) = { 111 , 199 , 197 };
Plane Surface( 112 ) = { 112 } ;
Line Loop( 113 ) = { -198 , -199 , -200 };
Plane Surface( 113 ) = { 113 } ;
Line Loop( 114 ) = { 114 , 202 , 200 };
Plane Surface( 114 ) = { 114 } ;
Line Loop( 115 ) = { -201 , -202 , -203 };
Plane Surface( 115 ) = { 115 } ;
Line Loop( 116 ) = { 117 , 205 , 290 };
Plane Surface( 116 ) = { 116 } ;
Line Loop( 117 ) = { -204 , -205 , -206 };
Plane Surface( 117 ) = { 117 } ;
Line Loop( 118 ) = { 120 , 208 , 206 };
Plane Surface( 118 ) = { 118 } ;
Line Loop( 119 ) = { -207 , -208 , -209 };
Plane Surface( 119 ) = { 119 } ;
Line Loop( 120 ) = { 123 , 211 , 209 };
Plane Surface( 120 ) = { 120 } ;
Line Loop( 121 ) = { -210 , -211 , -212 };
Plane Surface( 121 ) = { 121 } ;
Line Loop( 122 ) = { 126 , 214 , 212 };
Plane Surface( 122 ) = { 122 } ;
Line Loop( 123 ) = { -213 , -214 , -215 };
Plane Surface( 123 ) = { 123 } ;
Line Loop( 124 ) = { 129 , 217 , 215 };
Plane Surface( 124 ) = { 124 } ;
Line Loop( 125 ) = { -216 , -217 , -218 };
Plane Surface( 125 ) = { 125 } ;
Line Loop( 126 ) = { 132 , 220 , 218 };
Plane Surface( 126 ) = { 126 } ;
Line Loop( 127 ) = { -219 , -220 , -221 };
Plane Surface( 127 ) = { 127 } ;
Line Loop( 128 ) = { 135 , 223 , 221 };
Plane Surface( 128 ) = { 128 } ;
Line Loop( 129 ) = { -222 , -223 , -224 };
Plane Surface( 129 ) = { 129 } ;
Line Loop( 130 ) = { 138 , 226 , 224 };
Plane Surface( 130 ) = { 130 } ;
Line Loop( 131 ) = { -225 , -226 , -227 };
Plane Surface( 131 ) = { 131 } ;
Line Loop( 132 ) = { 141 , 229 , 227 };
Plane Surface( 132 ) = { 132 } ;
Line Loop( 133 ) = { -228 , -229 , -230 };
Plane Surface( 133 ) = { 133 } ;
Line Loop( 134 ) = { 144 , 232 , 230 };
Plane Surface( 134 ) = { 134 } ;
Line Loop( 135 ) = { -231 , -232 , -233 };
Plane Surface( 135 ) = { 135 } ;
Line Loop( 136 ) = { 147 , 235 , 233 };
Plane Surface( 136 ) = { 136 } ;
Line Loop( 137 ) = { -234 , -235 , -236 };
Plane Surface( 137 ) = { 137 } ;
Line Loop( 138 ) = { 150 , 238 , 236 };
Plane Surface( 138 ) = { 138 } ;
Line Loop( 139 ) = { -237 , -238 , -239 };
Plane Surface( 139 ) = { 139 } ;
Line Loop( 140 ) = { 153 , 241 , 239 };
Plane Surface( 140 ) = { 140 } ;
Line Loop( 141 ) = { -240 , -241 , -242 };
Plane Surface( 141 ) = { 141 } ;
Line Loop( 142 ) = { 156 , 244 , 242 };
Plane Surface( 142 ) = { 142 } ;
Line Loop( 143 ) = { -243 , -244 , -245 };
Plane Surface( 143 ) = { 143 } ;
Line Loop( 144 ) = { 159 , 247 , 245 };
Plane Surface( 144 ) = { 144 } ;
Line Loop( 145 ) = { -246 , -247 , -248 };
Plane Surface( 145 ) = { 145 } ;
Line Loop( 146 ) = { 162 , 250 , 248 };
Plane Surface( 146 ) = { 146 } ;
Line Loop( 147 ) = { -249 , -250 , -251 };
Plane Surface( 147 ) = { 147 } ;
Line Loop( 148 ) = { 165 , 253 , 251 };
Plane Surface( 148 ) = { 148 } ;
Line Loop( 149 ) = { -252 , -253 , -254 };
Plane Surface( 149 ) = { 149 } ;
Line Loop( 150 ) = { 168 , 256 , 254 };
Plane Surface( 150 ) = { 150 } ;
Line Loop( 151 ) = { -255 , -256 , -257 };
Plane Surface( 151 ) = { 151 } ;
Line Loop( 152 ) = { 171 , 259 , 257 };
Plane Surface( 152 ) = { 152 } ;
Line Loop( 153 ) = { -258 , -259 , -260 };
Plane Surface( 153 ) = { 153 } ;
Line Loop( 154 ) = { 174 , 262 , 260 };
Plane Surface( 154 ) = { 154 } ;
Line Loop( 155 ) = { -261 , -262 , -263 };
Plane Surface( 155 ) = { 155 } ;
Line Loop( 156 ) = { 177 , 265 , 263 };
Plane Surface( 156 ) = { 156 } ;
Line Loop( 157 ) = { -264 , -265 , -266 };
Plane Surface( 157 ) = { 157 } ;
Line Loop( 158 ) = { 180 , 268 , 266 };
Plane Surface( 158 ) = { 158 } ;
Line Loop( 159 ) = { -267 , -268 , -269 };
Plane Surface( 159 ) = { 159 } ;
Line Loop( 160 ) = { 183 , 271 , 269 };
Plane Surface( 160 ) = { 160 } ;
Line Loop( 161 ) = { -270 , -271 , -272 };
Plane Surface( 161 ) = { 161 } ;
Line Loop( 162 ) = { 186 , 274 , 272 };
Plane Surface( 162 ) = { 162 } ;
Line Loop( 163 ) = { -273 , -274 , -275 };
Plane Surface( 163 ) = { 163 } ;
Line Loop( 164 ) = { 189 , 277 , 275 };
Plane Surface( 164 ) = { 164 } ;
Line Loop( 165 ) = { -276 , -277 , -278 };
Plane Surface( 165 ) = { 165 } ;
Line Loop( 166 ) = { 192 , 280 , 278 };
Plane Surface( 166 ) = { 166 } ;
Line Loop( 167 ) = { -279 , -280 , -281 };
Plane Surface( 167 ) = { 167 } ;
Line Loop( 168 ) = { 195 , 283 , 281 };
Plane Surface( 168 ) = { 168 } ;
Line Loop( 169 ) = { -282 , -283 , -284 };
Plane Surface( 169 ) = { 169 } ;
Line Loop( 170 ) = { 198 , 286 , 284 };
Plane Surface( 170 ) = { 170 } ;
Line Loop( 171 ) = { -285 , -286 , -287 };
Plane Surface( 171 ) = { 171 } ;
Line Loop( 172 ) = { 201 , 289 , 287 };
Plane Surface( 172 ) = { 172 } ;
Line Loop( 173 ) = { -288 , -289 , -290 };
Plane Surface( 173 ) = { 173 } ;
Line Loop( 174 ) = { 204 , 292 , 377 };
Plane Surface( 174 ) = { 174 } ;
Line Loop( 175 ) = { -291 , -292 , -293 };
Plane Surface( 175 ) = { 175 } ;
Line Loop( 176 ) = { 207 , 295 , 293 };
Plane Surface( 176 ) = { 176 } ;
Line Loop( 177 ) = { -294 , -295 , -296 };
Plane Surface( 177 ) = { 177 } ;
Line Loop( 178 ) = { 210 , 298 , 296 };
Plane Surface( 178 ) = { 178 } ;
Line Loop( 179 ) = { -297 , -298 , -299 };
Plane Surface( 179 ) = { 179 } ;
Line Loop( 180 ) = { 213 , 301 , 299 };
Plane Surface( 180 ) = { 180 } ;
Line Loop( 181 ) = { -300 , -301 , -302 };
Plane Surface( 181 ) = { 181 } ;
Line Loop( 182 ) = { 216 , 304 , 302 };
Plane Surface( 182 ) = { 182 } ;
Line Loop( 183 ) = { -303 , -304 , -305 };
Plane Surface( 183 ) = { 183 } ;
Line Loop( 184 ) = { 219 , 307 , 305 };
Plane Surface( 184 ) = { 184 } ;
Line Loop( 185 ) = { -306 , -307 , -308 };
Plane Surface( 185 ) = { 185 } ;
Line Loop( 186 ) = { 222 , 310 , 308 };
Plane Surface( 186 ) = { 186 } ;
Line Loop( 187 ) = { -309 , -310 , -311 };
Plane Surface( 187 ) = { 187 } ;
Line Loop( 188 ) = { 225 , 313 , 311 };
Plane Surface( 188 ) = { 188 } ;
Line Loop( 189 ) = { -312 , -313 , -314 };
Plane Surface( 189 ) = { 189 } ;
Line Loop( 190 ) = { 228 , 316 , 314 };
Plane Surface( 190 ) = { 190 } ;
Line Loop( 191 ) = { -315 , -316 , -317 };
Plane Surface( 191 ) = { 191 } ;
Line Loop( 192 ) = { 231 , 319 , 317 };
Plane Surface( 192 ) = { 192 } ;
Line Loop( 193 ) = { -318 , -319 , -320 };
Plane Surface( 193 ) = { 193 } ;
Line Loop( 194 ) = { 234 , 322 , 320 };
Plane Surface( 194 ) = { 194 } ;
Line Loop( 195 ) = { -321 , -322 , -323 };
Plane Surface( 195 ) = { 195 } ;
Line Loop( 196 ) = { 237 , 325 , 323 };
Plane Surface( 196 ) = { 196 } ;
Line Loop( 197 ) = { -324 , -325 , -326 };
Plane Surface( 197 ) = { 197 } ;
Line Loop( 198 ) = { 240 , 328 , 326 };
Plane Surface( 198 ) = { 198 } ;
Line Loop( 199 ) = { -327 , -328 , -329 };
Plane Surface( 199 ) = { 199 } ;
Line Loop( 200 ) = { 243 , 331 , 329 };
Plane Surface( 200 ) = { 200 } ;
Line Loop( 201 ) = { -330 , -331 , -332 };
Plane Surface( 201 ) = { 201 } ;
Line Loop( 202 ) = { 246 , 334 , 332 };
Plane Surface( 202 ) = { 202 } ;
Line Loop( 203 ) = { -333 , -334 , -335 };
Plane Surface( 203 ) = { 203 } ;
Line Loop( 204 ) = { 249 , 337 , 335 };
Plane Surface( 204 ) = { 204 } ;
Line Loop( 205 ) = { -336 , -337 , -338 };
Plane Surface( 205 ) = { 205 } ;
Line Loop( 206 ) = { 252 , 340 , 338 };
Plane Surface( 206 ) = { 206 } ;
Line Loop( 207 ) = { -339 , -340 , -341 };
Plane Surface( 207 ) = { 207 } ;
Line Loop( 208 ) = { 255 , 343 , 341 };
Plane Surface( 208 ) = { 208 } ;
Line Loop( 209 ) = { -342 , -343 , -344 };
Plane Surface( 209 ) = { 209 } ;
Line Loop( 210 ) = { 258 , 346 , 344 };
Plane Surface( 210 ) = { 210 } ;
Line Loop( 211 ) = { -345 , -346 , -347 };
Plane Surface( 211 ) = { 211 } ;
Line Loop( 212 ) = { 261 , 349 , 347 };
Plane Surface( 212 ) = { 212 } ;
Line Loop( 213 ) = { -348 , -349 , -350 };
Plane Surface( 213 ) = { 213 } ;
Line Loop( 214 ) = { 264 , 352 , 350 };
Plane Surface( 214 ) = { 214 } ;
Line Loop( 215 ) = { -351 , -352 , -353 };
Plane Surface( 215 ) = { 215 } ;
Line Loop( 216 ) = { 267 , 355 , 353 };
Plane Surface( 216 ) = { 216 } ;
Line Loop( 217 ) = { -354 , -355 , -356 };
Plane Surface( 217 ) = { 217 } ;
Line Loop( 218 ) = { 270 , 358 , 356 };
Plane Surface( 218 ) = { 218 } ;
Line Loop( 219 ) = { -357 , -358 , -359 };
Plane Surface( 219 ) = { 219 } ;
Line Loop( 220 ) = { 273 , 361 , 359 };
Plane Surface( 220 ) = { 220 } ;
Line Loop( 221 ) = { -360 , -361 , -362 };
Plane Surface( 221 ) = { 221 } ;
Line Loop( 222 ) = { 276 , 364 , 362 };
Plane Surface( 222 ) = { 222 } ;
Line Loop( 223 ) = { -363 , -364 , -365 };
Plane Surface( 223 ) = { 223 } ;
Line Loop( 224 ) = { 279 , 367 , 365 };
Plane Surface( 224 ) = { 224 } ;
Line Loop( 225 ) = { -366 , -367 , -368 };
Plane Surface( 225 ) = { 225 } ;
Line Loop( 226 ) = { 282 , 370 , 368 };
Plane Surface( 226 ) = { 226 } ;
Line Loop( 227 ) = { -369 , -370 , -371 };
Plane Surface( 227 ) = { 227 } ;
Line Loop( 228 ) = { 285 , 373 , 371 };
Plane Surface( 228 ) = { 228 } ;
Line Loop( 229 ) = { -372 , -373 , -374 };
Plane Surface( 229 ) = { 229 } ;
Line Loop( 230 ) = { 288 , 376 , 374 };
Plane Surface( 230 ) = { 230 } ;
Line Loop( 231 ) = { -375 , -376 , -377 };
Plane Surface( 231 ) = { 231 } ;
Line Loop( 232 ) = { 291 , 378 , 435 };
Plane Surface( 232 ) = { 232 } ;
Line Loop( 233 ) = { -1 , -378 , -379 };
Plane Surface( 233 ) = { 233 } ;
Line Loop( 234 ) = { 294 , 380 , 379 };
Plane Surface( 234 ) = { 234 } ;
Line Loop( 235 ) = { -2 , -380 , -381 };
Plane Surface( 235 ) = { 235 } ;
Line Loop( 236 ) = { 297 , 382 , 381 };
Plane Surface( 236 ) = { 236 } ;
Line Loop( 237 ) = { -3 , -382 , -383 };
Plane Surface( 237 ) = { 237 } ;
Line Loop( 238 ) = { 300 , 384 , 383 };
Plane Surface( 238 ) = { 238 } ;
Line Loop( 239 ) = { -4 , -384 , -385 };
Plane Surface( 239 ) = { 239 } ;
Line Loop( 240 ) = { 303 , 386 , 385 };
Plane Surface( 240 ) = { 240 } ;
Line Loop( 241 ) = { -5 , -386 , -387 };
Plane Surface( 241 ) = { 241 } ;
Line Loop( 242 ) = { 306 , 388 , 387 };
Plane Surface( 242 ) = { 242 } ;
Line Loop( 243 ) = { -6 , -388 , -389 };
Plane Surface( 243 ) = { 243 } ;
Line Loop( 244 ) = { 309 , 390 , 389 };
Plane Surface( 244 ) = { 244 } ;
Line Loop( 245 ) = { -7 , -390 , -391 };
Plane Surface( 245 ) = { 245 } ;
Line Loop( 246 ) = { 312 , 392 , 391 };
Plane Surface( 246 ) = { 246 } ;
Line Loop( 247 ) = { -8 , -392 , -393 };
Plane Surface( 247 ) = { 247 } ;
Line Loop( 248 ) = { 315 , 394 , 393 };
Plane Surface( 248 ) = { 248 } ;
Line Loop( 249 ) = { -9 , -394 , -395 };
Plane Surface( 249 ) = { 249 } ;
Line Loop( 250 ) = { 318 , 396 , 395 };
Plane Surface( 250 ) = { 250 } ;
Line Loop( 251 ) = { -10 , -396 , -397 };
Plane Surface( 251 ) = { 251 } ;
Line Loop( 252 ) = { 321 , 398 , 397 };
Plane Surface( 252 ) = { 252 } ;
Line Loop( 253 ) = { -11 , -398 , -399 };
Plane Surface( 253 ) = { 253 } ;
Line Loop( 254 ) = { 324 , 400 , 399 };
Plane Surface( 254 ) = { 254 } ;
Line Loop( 255 ) = { -12 , -400 , -401 };
Plane Surface( 255 ) = { 255 } ;
Line Loop( 256 ) = { 327 , 402 , 401 };
Plane Surface( 256 ) = { 256 } ;
Line Loop( 257 ) = { -13 , -402 , -403 };
Plane Surface( 257 ) = { 257 } ;
Line Loop( 258 ) = { 330 , 404 , 403 };
Plane Surface( 258 ) = { 258 } ;
Line Loop( 259 ) = { -14 , -404 , -405 };
Plane Surface( 259 ) = { 259 } ;
Line Loop( 260 ) = { 333 , 406 , 405 };
Plane Surface( 260 ) = { 260 } ;
Line Loop( 261 ) = { -15 , -406 , -407 };
Plane Surface( 261 ) = { 261 } ;
Line Loop( 262 ) = { 336 , 408 , 407 };
Plane Surface( 262 ) = { 262 } ;
Line Loop( 263 ) = { -16 , -408 , -409 };
Plane Surface( 263 ) = { 263 } ;
Line Loop( 264 ) = { 339 , 410 , 409 };
Plane Surface( 264 ) = { 264 } ;
Line Loop( 265 ) = { -17 , -410 , -411 };
Plane Surface( 265 ) = { 265 } ;
Line Loop( 266 ) = { 342 , 412 , 411 };
Plane Surface( 266 ) = { 266 } ;
Line Loop( 267 ) = { -18 , -412 , -413 };
Plane Surface( 267 ) = { 267 } ;
Line Loop( 268 ) = { 345 , 414 , 413 };
Plane Surface( 268 ) = { 268 } ;
Line Loop( 269 ) = { -19 , -414 , -415 };
Plane Surface( 269 ) = { 269 } ;
Line Loop( 270 ) = { 348 , 416 , 415 };
Plane Surface( 270 ) = { 270 } ;
Line Loop( 271 ) = { -20 , -416 , -417 };
Plane Surface( 271 ) = { 271 } ;
Line Loop( 272 ) = { 351 , 418 , 417 };
Plane Surface( 272 ) = { 272 } ;
Line Loop( 273 ) = { -21 , -418 , -419 };
Plane Surface( 273 ) = { 273 } ;
Line Loop( 274 ) = { 354 , 420 , 419 };
Plane Surface( 274 ) = { 274 } ;
Line Loop( 275 ) = { -22 , -420 , -421 };
Plane Surface( 275 ) = { 275 } ;
Line Loop( 276 ) = { 357 , 422 , 421 };
Plane Surface( 276 ) = { 276 } ;
Line Loop( 277 ) = { -23 , -422 , -423 };
Plane Surface( 277 ) = { 277 } ;
Line Loop( 278 ) = { 360 , 424 , 423 };
Plane Surface( 278 ) = { 278 } ;
Line Loop( 279 ) = { -24 , -424 , -425 };
Plane Surface( 279 ) = { 279 } ;
Line Loop( 280 ) = { 363 , 426 , 425 };
Plane Surface( 280 ) = { 280 } ;
Line Loop( 281 ) = { -25 , -426 , -427 };
Plane Surface( 281 ) = { 281 } ;
Line Loop( 282 ) = { 366 , 428 , 427 };
Plane Surface( 282 ) = { 282 } ;
Line Loop( 283 ) = { -26 , -428 , -429 };
Plane Surface( 283 ) = { 283 } ;
Line Loop( 284 ) = { 369 , 430 , 429 };
Plane Surface( 284 ) = { 284 } ;
Line Loop( 285 ) = { -27 , -430 , -431 };
Plane Surface( 285 ) = { 285 } ;
Line Loop( 286 ) = { 372 , 432 , 431 };
Plane Surface( 286 ) = { 286 } ;
Line Loop( 287 ) = { -28 , -432 , -433 };
Plane Surface( 287 ) = { 287 } ;
Line Loop( 288 ) = { 375 , 434 , 433 };
Plane Surface( 288 ) = { 288 } ;
Line Loop( 289 ) = { -29 , -434 , -435 };
Plane Surface( 289 ) = { 289 } ;


//Construct Knot Volume:
Surface Loop(1) = {
 0 , 1 , 2 , 3 , 4 , 5 , 6 , 7 , 8 , 9 ,
 10 , 11 , 12 , 13 , 14 , 15 , 16 , 17 , 18 , 19 ,
 20 , 21 , 22 , 23 , 24 , 25 , 26 , 27 , 28 , 29 ,
 30 , 31 , 32 , 33 , 34 , 35 , 36 , 37 , 38 , 39 ,
 40 , 41 , 42 , 43 , 44 , 45 , 46 , 47 , 48 , 49 ,
 50 , 51 , 52 , 53 , 54 , 55 , 56 , 57 , 58 , 59 ,
 60 , 61 , 62 , 63 , 64 , 65 , 66 , 67 , 68 , 69 ,
 70 , 71 , 72 , 73 , 74 , 75 , 76 , 77 , 78 , 79 ,
 80 , 81 , 82 , 83 , 84 , 85 , 86 , 87 , 88 , 89 ,
 90 , 91 , 92 , 93 , 94 , 95 , 96 , 97 , 98 , 99 ,
 100 , 101 , 102 , 103 , 104 , 105 , 106 , 107 , 108 , 109 ,
 110 , 111 , 112 , 113 , 114 , 115 , 116 , 117 , 118 , 119 ,
 120 , 121 , 122 , 123 , 124 , 125 , 126 , 127 , 128 , 129 ,
 130 , 131 , 132 , 133 , 134 , 135 , 136 , 137 , 138 , 139 ,
 140 , 141 , 142 , 143 , 144 , 145 , 146 , 147 , 148 , 149 ,
 150 , 151 , 152 , 153 , 154 , 155 , 156 , 157 , 158 , 159 ,
 160 , 161 , 162 , 163 , 164 , 165 , 166 , 167 , 168 , 169 ,
 170 , 171 , 172 , 173 , 174 , 175 , 176 , 177 , 178 , 179 ,
 180 , 181 , 182 , 183 , 184 , 185 , 186 , 187 , 188 , 189 ,
 190 , 191 , 192 , 193 , 194 , 195 , 196 , 197 , 198 , 199 ,
 200 , 201 , 202 , 203 , 204 , 205 , 206 , 207 , 208 , 209 ,
 210 , 211 , 212 , 213 , 214 , 215 , 216 , 217 , 218 , 219 ,
 220 , 221 , 222 , 223 , 224 , 225 , 226 , 227 , 228 , 229 ,
 230 , 231 , 232 , 233 , 234 , 235 , 236 , 237 , 238 , 239 ,
 240 , 241 , 242 , 243 , 244 , 245 , 246 , 247 , 248 , 249 ,
 250 , 251 , 252 , 253 , 254 , 255 , 256 , 257 , 258 , 259 ,
 260 , 261 , 262 , 263 , 264 , 265 , 266 , 267 , 268 , 269 ,
 270 , 271 , 272 , 273 , 274 , 275 , 276 , 277 , 278 , 279 ,
 280 , 281 , 282 , 283 , 284 , 285 , 286 , 287 , 288 , 289 };




//Construct Bounding Sphere:
chl2=0.1;
Point ( 145 ) = { 0 , 0 , 0 , chl2 } ;
Point ( 146 ) = { 4 , 0 , 0 , chl2 } ;
Point ( 147 ) = { -4 , 0 , 0 , chl2 } ;
Point ( 148 ) = { 0 , 4 , 0 , chl2 } ;
Point ( 149 ) = { 0 , -4 , 0 , chl2 } ;
Point ( 150 ) = { 0 , 0 , 4 , chl2 } ;
Point ( 151 ) = { 0 , 0 , -4 , chl2 } ;
Circle( 436 ) = { 146 , 145, 148 } ;
Circle( 437 ) = { 148 , 145, 147 } ;
Circle( 438 ) = { 146 , 145, 149 } ;
Circle( 439 ) = { 149 , 145, 147 } ;
Circle( 440 ) = { 146 , 145, 150 } ;
Circle( 441 ) = { 150 , 145, 147 } ;
Circle( 442 ) = { 146 , 145, 151 } ;
Circle( 443 ) = { 151 , 145, 147 } ;
Line Loop( 290 ) = { -436 , -437 , 443 ,442 };
Ruled Surface( 290 ) = { 290 } ;
Line Loop( 291 ) = { -439 , 441 , 440 ,-438 };
Ruled Surface( 291 ) = { 291 } ;
Line Loop( 292 ) = { 438 , 439 , -443 ,-442 };
Ruled Surface( 292 ) = { 292 } ;
Line Loop( 293 ) = { -440 , -441 , 437 ,436 };
Ruled Surface( 293 ) = { 293 } ;
Surface Loop( 2 ) = { 290 , 291 , 292 , 293 };
Volume(1) = {2,1};
//Volume(2) = {1};
//+

Physical Surface(1) = {290, 292, 291, 293};
Physical Surface(2) = {
 0 , 1 , 2 , 3 , 4 , 5 , 6 , 7 , 8 , 9 ,
 10 , 11 , 12 , 13 , 14 , 15 , 16 , 17 , 18 , 19 ,
 20 , 21 , 22 , 23 , 24 , 25 , 26 , 27 , 28 , 29 ,
 30 , 31 , 32 , 33 , 34 , 35 , 36 , 37 , 38 , 39 ,
 40 , 41 , 42 , 43 , 44 , 45 , 46 , 47 , 48 , 49 ,
 50 , 51 , 52 , 53 , 54 , 55 , 56 , 57 , 58 , 59 ,
 60 , 61 , 62 , 63 , 64 , 65 , 66 , 67 , 68 , 69 ,
 70 , 71 , 72 , 73 , 74 , 75 , 76 , 77 , 78 , 79 ,
 80 , 81 , 82 , 83 , 84 , 85 , 86 , 87 , 88 , 89 ,
 90 , 91 , 92 , 93 , 94 , 95 , 96 , 97 , 98 , 99 ,
 100 , 101 , 102 , 103 , 104 , 105 , 106 , 107 , 108 , 109 ,
 110 , 111 , 112 , 113 , 114 , 115 , 116 , 117 , 118 , 119 ,
 120 , 121 , 122 , 123 , 124 , 125 , 126 , 127 , 128 , 129 ,
 130 , 131 , 132 , 133 , 134 , 135 , 136 , 137 , 138 , 139 ,
 140 , 141 , 142 , 143 , 144 , 145 , 146 , 147 , 148 , 149 ,
 150 , 151 , 152 , 153 , 154 , 155 , 156 , 157 , 158 , 159 ,
 160 , 161 , 162 , 163 , 164 , 165 , 166 , 167 , 168 , 169 ,
 170 , 171 , 172 , 173 , 174 , 175 , 176 , 177 , 178 , 179 ,
 180 , 181 , 182 , 183 , 184 , 185 , 186 , 187 , 188 , 189 ,
 190 , 191 , 192 , 193 , 194 , 195 , 196 , 197 , 198 , 199 ,
 200 , 201 , 202 , 203 , 204 , 205 , 206 , 207 , 208 , 209 ,
 210 , 211 , 212 , 213 , 214 , 215 , 216 , 217 , 218 , 219 ,
 220 , 221 , 222 , 223 , 224 , 225 , 226 , 227 , 228 , 229 ,
 230 , 231 , 232 , 233 , 234 , 235 , 236 , 237 , 238 , 239 ,
 240 , 241 , 242 , 243 , 244 , 245 , 246 , 247 , 248 , 249 ,
 250 , 251 , 252 , 253 , 254 , 255 , 256 , 257 , 258 , 259 ,
 260 , 261 , 262 , 263 , 264 , 265 , 266 , 267 , 268 , 269 ,
 270 , 271 , 272 , 273 , 274 , 275 , 276 , 277 , 278 , 279 ,
 280 , 281 , 282 , 283 , 284 , 285 , 286 , 287 , 288 , 289 };

Physical Volume(2001) = {1};
//Physical Volume(2002) = {2};

Coherence;
//Mesh.Algorithm=5;

